<svg width="118" height="43" viewBox="0 0 118 43" fill="none" xmlns="http://www.w3.org/2000/svg">
<path d="M0 15C0 6.71573 6.71573 0 15 0H115C116.657 0 118 1.34315 118 3V28C118 36.2843 111.284 43 103 43H3C1.34314 43 0 41.6569 0 40V15Z" fill="#B0CB1F"/>
<path d="M31.2273 30.2727V18.2727H32.5227V19.6591H32.6818C32.7803 19.5076 32.9167 19.3144 33.0909 19.0795C33.2689 18.8409 33.5227 18.6288 33.8523 18.4432C34.1856 18.2538 34.6364 18.1591 35.2045 18.1591C35.9394 18.1591 36.5871 18.3428 37.1477 18.7102C37.7083 19.0777 38.1458 19.5985 38.4602 20.2727C38.7746 20.947 38.9318 21.7424 38.9318 22.6591C38.9318 23.5833 38.7746 24.3845 38.4602 25.0625C38.1458 25.7367 37.7102 26.2595 37.1534 26.6307C36.5966 26.9981 35.9545 27.1818 35.2273 27.1818C34.6667 27.1818 34.2178 27.089 33.8807 26.9034C33.5436 26.714 33.2841 26.5 33.1023 26.2614C32.9205 26.0189 32.7803 25.8182 32.6818 25.6591H32.5682V30.2727H31.2273ZM32.5455 22.6364C32.5455 23.2955 32.642 23.8769 32.8352 24.3807C33.0284 24.8807 33.3106 25.2727 33.6818 25.5568C34.053 25.8371 34.5076 25.9773 35.0455 25.9773C35.6061 25.9773 36.0739 25.8295 36.4489 25.5341C36.8277 25.2348 37.1117 24.8333 37.3011 24.3295C37.4943 23.822 37.5909 23.2576 37.5909 22.6364C37.5909 22.0227 37.4962 21.4697 37.3068 20.9773C37.1212 20.4811 36.839 20.089 36.4602 19.8011C36.0852 19.5095 35.6136 19.3636 35.0455 19.3636C34.5 19.3636 34.0417 19.5019 33.6705 19.7784C33.2992 20.0511 33.0189 20.4337 32.8295 20.9261C32.6402 21.4148 32.5455 21.9848 32.5455 22.6364ZM40.9773 27V18.2727H42.2727V19.5909H42.3636C42.5227 19.1591 42.8106 18.8087 43.2273 18.5398C43.6439 18.2708 44.1136 18.1364 44.6364 18.1364C44.7348 18.1364 44.858 18.1383 45.0057 18.142C45.1534 18.1458 45.2652 18.1515 45.3409 18.1591V19.5227C45.2955 19.5114 45.1913 19.4943 45.0284 19.4716C44.8693 19.4451 44.7008 19.4318 44.5227 19.4318C44.0985 19.4318 43.7197 19.5208 43.3864 19.6989C43.0568 19.8731 42.7955 20.1155 42.6023 20.4261C42.4129 20.733 42.3182 21.0833 42.3182 21.4773V27H40.9773ZM46.9304 27V18.2727H48.2713V27H46.9304ZM47.6122 16.8182C47.3509 16.8182 47.1255 16.7292 46.9361 16.5511C46.7505 16.3731 46.6577 16.1591 46.6577 15.9091C46.6577 15.6591 46.7505 15.4451 46.9361 15.267C47.1255 15.089 47.3509 15 47.6122 15C47.8736 15 48.0971 15.089 48.2827 15.267C48.4721 15.4451 48.5668 15.6591 48.5668 15.9091C48.5668 16.1591 48.4721 16.3731 48.2827 16.5511C48.0971 16.7292 47.8736 16.8182 47.6122 16.8182ZM50.7273 27V18.2727H52.0227V19.6364H52.1364C52.3182 19.1705 52.6117 18.8087 53.017 18.5511C53.4223 18.2898 53.9091 18.1591 54.4773 18.1591C55.053 18.1591 55.5322 18.2898 55.9148 18.5511C56.3011 18.8087 56.6023 19.1705 56.8182 19.6364H56.9091C57.1326 19.1856 57.4678 18.8277 57.9148 18.5625C58.3617 18.2936 58.8977 18.1591 59.5227 18.1591C60.303 18.1591 60.9413 18.4034 61.4375 18.892C61.9337 19.3769 62.1818 20.1326 62.1818 21.1591V27H60.8409V21.1591C60.8409 20.5152 60.6648 20.0549 60.3125 19.7784C59.9602 19.5019 59.5455 19.3636 59.0682 19.3636C58.4545 19.3636 57.9792 19.5492 57.642 19.9205C57.3049 20.2879 57.1364 20.7538 57.1364 21.3182V27H55.7727V21.0227C55.7727 20.5265 55.6117 20.1269 55.2898 19.8239C54.9678 19.517 54.553 19.3636 54.0455 19.3636C53.697 19.3636 53.3712 19.4564 53.0682 19.642C52.7689 19.8277 52.5265 20.0852 52.3409 20.4148C52.1591 20.7405 52.0682 21.1174 52.0682 21.5455V27H50.7273ZM67.2017 27.2045C66.6487 27.2045 66.1468 27.1004 65.696 26.892C65.2453 26.6799 64.8873 26.375 64.6222 25.9773C64.357 25.5758 64.2244 25.0909 64.2244 24.5227C64.2244 24.0227 64.3229 23.6174 64.5199 23.3068C64.7169 22.9924 64.9801 22.7462 65.3097 22.5682C65.6392 22.3902 66.0028 22.2576 66.4006 22.1705C66.8021 22.0795 67.2055 22.0076 67.6108 21.9545C68.1411 21.8864 68.571 21.8352 68.9006 21.8011C69.2339 21.7633 69.4763 21.7008 69.6278 21.6136C69.7831 21.5265 69.8608 21.375 69.8608 21.1591V21.1136C69.8608 20.553 69.7074 20.1174 69.4006 19.8068C69.0975 19.4962 68.6373 19.3409 68.0199 19.3409C67.3797 19.3409 66.8778 19.4811 66.5142 19.7614C66.1506 20.0417 65.8949 20.3409 65.7472 20.6591L64.4744 20.2045C64.7017 19.6742 65.0047 19.2614 65.3835 18.9659C65.7661 18.6667 66.1828 18.4583 66.6335 18.3409C67.0881 18.2197 67.535 18.1591 67.9744 18.1591C68.2547 18.1591 68.5767 18.1932 68.9403 18.2614C69.3078 18.3258 69.6619 18.4602 70.0028 18.6648C70.3475 18.8693 70.6335 19.178 70.8608 19.5909C71.0881 20.0038 71.2017 20.5568 71.2017 21.25V27H69.8608V25.8182H69.7926C69.7017 26.0076 69.5502 26.2102 69.3381 26.4261C69.1259 26.642 68.8438 26.8258 68.4915 26.9773C68.1392 27.1288 67.7093 27.2045 67.2017 27.2045ZM67.4062 26C67.9366 26 68.3835 25.8958 68.7472 25.6875C69.1146 25.4792 69.3911 25.2102 69.5767 24.8807C69.7661 24.5511 69.8608 24.2045 69.8608 23.8409V22.6136C69.804 22.6818 69.679 22.7443 69.4858 22.8011C69.2964 22.8542 69.0767 22.9015 68.8267 22.9432C68.5805 22.9811 68.34 23.0152 68.1051 23.0455C67.8741 23.072 67.6866 23.0947 67.5426 23.1136C67.1941 23.1591 66.8684 23.233 66.5653 23.3352C66.2661 23.4337 66.0237 23.5833 65.8381 23.7841C65.6563 23.9811 65.5653 24.25 65.5653 24.5909C65.5653 25.0568 65.7377 25.4091 66.0824 25.6477C66.4309 25.8826 66.8722 26 67.4062 26ZM73.6491 27V18.2727H74.9446V19.5909H75.0355C75.1946 19.1591 75.4825 18.8087 75.8991 18.5398C76.3158 18.2708 76.7855 18.1364 77.3082 18.1364C77.4067 18.1364 77.5298 18.1383 77.6776 18.142C77.8253 18.1458 77.937 18.1515 78.0128 18.1591V19.5227C77.9673 19.5114 77.8632 19.4943 77.7003 19.4716C77.5412 19.4451 77.3726 19.4318 77.1946 19.4318C76.7704 19.4318 76.3916 19.5208 76.0582 19.6989C75.7287 19.8731 75.4673 20.1155 75.2741 20.4261C75.0848 20.733 74.9901 21.0833 74.9901 21.4773V27H73.6491ZM80.7315 30.2727C80.5043 30.2727 80.3016 30.2538 80.1236 30.2159C79.9455 30.1818 79.8224 30.1477 79.7543 30.1136L80.0952 28.9318C80.4209 29.0152 80.7088 29.0455 80.9588 29.0227C81.2088 29 81.4304 28.8883 81.6236 28.6875C81.8205 28.4905 82.0005 28.1705 82.1634 27.7273L82.4134 27.0455L79.1861 18.2727H80.6406L83.0497 25.2273H83.1406L85.5497 18.2727H87.0043L83.2997 28.2727C83.133 28.7235 82.9266 29.0966 82.6804 29.392C82.4342 29.6913 82.1482 29.9129 81.8224 30.0568C81.5005 30.2008 81.1368 30.2727 80.7315 30.2727Z" fill="#333231"/>
</svg>
