<svg width="17" height="16" viewBox="0 0 17 16" fill="none" xmlns="http://www.w3.org/2000/svg">
<path d="M8.46936 13.0283L12.4069 15.5283C12.9147 15.8487 13.5397 15.3721 13.3912 14.7862L12.2506 10.3018C12.2198 10.1775 12.2247 10.047 12.2648 9.92536C12.3048 9.80372 12.3785 9.69589 12.4772 9.61428L16.0084 6.66896C16.4694 6.28615 16.235 5.51271 15.6334 5.47365L11.024 5.17678C10.8983 5.16946 10.7774 5.12566 10.6761 5.05074C10.5748 4.97582 10.4975 4.87302 10.4537 4.7549L8.73498 0.426777C8.68949 0.301701 8.6066 0.193655 8.49759 0.117305C8.38857 0.0409548 8.2587 0 8.12561 0C7.99251 0 7.86264 0.0409548 7.75363 0.117305C7.64461 0.193655 7.56173 0.301701 7.51623 0.426777L5.79748 4.7549C5.75368 4.87302 5.67641 4.97582 5.57513 5.05074C5.47385 5.12566 5.35294 5.16946 5.22717 5.17678L0.617794 5.47365C0.0162319 5.51271 -0.218143 6.28615 0.242794 6.66896L3.77404 9.61428C3.87274 9.69589 3.94638 9.80372 3.98646 9.92536C4.02655 10.047 4.03145 10.1775 4.00061 10.3018L2.94592 14.458C2.76623 15.1612 3.51623 15.7315 4.11779 15.3487L7.78186 13.0283C7.8846 12.963 8.00385 12.9283 8.12561 12.9283C8.24737 12.9283 8.36661 12.963 8.46936 13.0283Z" fill="#FA8232"/>
</svg>
